HIERARCHY
ROOT Bone
{
	OFFSET 0.000000 0.000000 0.000000
	CHANNELS 6 Xposition Yposition Zposition Xrotation Yrotation Zrotation
	JOINT Bone.001
	{
		OFFSET 0.000000 0.000000 1.000000
		CHANNELS 3 Xrotation Yrotation Zrotation
		End Site
		{
			OFFSET 0.000000 0.000000 1.183398
		}
	}
}
MOTION
Frames: 100
Frame Time: 0.041667
0.000000 0.000000 0.000000 -0.000000 0.000000 -0.000000 -0.000000 0.000000 -0.000000 
0.000000 0.007220 0.000000 -0.000000 0.000000 -0.000000 -0.000000 0.000000 -0.000000 
0.000000 0.028992 0.000000 -0.000000 0.000000 -0.000000 -0.000000 0.000000 -0.000000 
0.000000 0.065439 0.000000 -0.000000 0.000000 -0.000000 -0.000000 0.000000 -0.000000 
0.000000 0.116628 0.000000 -0.000000 0.000000 -0.000000 -0.000000 0.000000 -0.000000 
0.000000 0.182554 0.000000 -0.000000 0.000000 -0.000000 -0.000000 0.000000 -0.000000 
0.000000 0.263130 0.000000 -0.000000 0.000000 -0.000000 -0.000000 0.000000 -0.000000 
0.000000 0.358177 0.000000 -0.000000 0.000000 -0.000000 -0.000000 0.000000 -0.000000 
0.000000 0.467408 0.000000 -0.000000 0.000000 -0.000000 -0.000000 0.000000 -0.000000 
0.000000 0.590425 0.000000 -0.000000 0.000000 -0.000000 -0.000000 0.000000 -0.000000 
0.000000 0.726700 0.000000 -0.000000 0.000000 -0.000000 -0.000000 0.000000 -0.000000 
0.000000 0.875574 0.000000 -0.000000 0.000000 -0.000000 -0.000000 0.000000 -0.000000 
0.000000 1.036244 0.000000 -0.000000 0.000000 -0.000000 -0.000000 0.000000 -0.000000 
0.000000 1.207766 0.000000 -0.000000 0.000000 -0.000000 -0.000000 0.000000 -0.000000 
0.000000 1.389051 0.000000 -0.000000 0.000000 -0.000000 -0.000000 0.000000 -0.000000 
0.000000 1.578874 0.000000 -0.000000 0.000000 -0.000000 -0.000000 0.000000 -0.000000 
0.000000 1.775881 0.000000 -0.000000 0.000000 -0.000000 -0.000000 0.000000 -0.000000 
0.000000 1.978604 0.000000 -0.000000 0.000000 -0.000000 -0.000000 0.000000 -0.000000 
0.000000 2.185480 0.000000 -0.000000 0.000000 -0.000000 -0.000000 0.000000 -0.000000 
0.000000 2.394878 0.000000 -0.000000 0.000000 -0.000000 -0.000000 0.000000 -0.000000 
0.000000 2.605122 0.000000 -0.000000 0.000000 -0.000000 -0.000000 0.000000 -0.000000 
0.000000 2.814520 0.000000 -0.000000 0.000000 -0.000000 -0.000000 0.000000 -0.000000 
0.000000 3.021397 0.000000 -0.000000 0.000000 -0.000000 -0.000000 0.000000 -0.000000 
0.000000 3.224119 0.000000 -0.000000 0.000000 -0.000000 -0.000000 0.000000 -0.000000 
0.000000 3.421126 0.000000 -0.000000 0.000000 -0.000000 -0.000000 0.000000 -0.000000 
0.000000 3.610949 0.000000 -0.000000 0.000000 -0.000000 -0.000000 0.000000 -0.000000 
0.000000 3.792234 0.000000 -0.000000 0.000000 -0.000000 -0.000000 0.000000 -0.000000 
0.000000 3.963756 0.000000 -0.000000 0.000000 -0.000000 -0.000000 0.000000 -0.000000 
0.000000 4.124426 0.000000 -0.000000 0.000000 -0.000000 -0.000000 0.000000 -0.000000 
0.000000 4.273300 0.000000 -0.000000 0.000000 -0.000000 -0.000000 0.000000 -0.000000 
0.000000 4.409575 0.000000 -0.000000 0.000000 -0.000000 -0.000000 0.000000 -0.000000 
0.000000 4.532592 0.000000 -0.000000 0.000000 -0.000000 -0.000000 0.000000 -0.000000 
0.000000 4.641823 0.000000 -0.000000 0.000000 -0.000000 -0.000000 0.000000 -0.000000 
0.000000 4.736870 0.000000 -0.000000 0.000000 -0.000000 -0.000000 0.000000 -0.000000 
0.000000 4.817446 0.000000 -0.000000 0.000000 -0.000000 -0.000000 0.000000 -0.000000 
0.000000 4.883371 0.000000 -0.000000 0.000000 -0.000000 -0.000000 0.000000 -0.000000 
0.000000 4.934562 0.000000 -0.000000 0.000000 -0.000000 -0.000000 0.000000 -0.000000 
0.000000 4.971008 0.000000 -0.000000 0.000000 -0.000000 -0.000000 0.000000 -0.000000 
0.000000 4.992780 0.000000 -0.000000 0.000000 -0.000000 -0.000000 0.000000 -0.000000 
0.000000 5.000000 0.000000 -0.000000 0.000000 -0.000000 -0.000000 0.000000 -0.000000 
0.000000 5.000000 0.000000 -0.000000 0.000000 -0.000000 -0.000000 0.447272 -0.000000 
0.000000 5.000000 0.000000 -0.000000 0.000000 -0.000000 -0.000000 1.807918 -0.000000 
0.000000 5.000000 0.000000 -0.000000 0.000000 -0.000000 -0.000000 4.111806 -0.000000 
0.000000 5.000000 0.000000 -0.000000 0.000000 -0.000000 -0.000000 7.384818 -0.000000 
0.000000 5.000000 0.000000 -0.000000 0.000000 -0.000000 -0.000000 11.637784 -0.000000 
0.000000 5.000000 0.000000 -0.000000 0.000000 -0.000000 -0.000000 16.851421 -0.000000 
0.000000 5.000000 0.000000 -0.000000 0.000000 -0.000000 -0.000000 22.958895 -0.000000 
0.000000 5.000000 0.000000 -0.000000 0.000000 -0.000000 -0.000000 29.830213 -0.000000 
0.000000 5.000000 0.000000 -0.000000 0.000000 -0.000000 -0.000000 37.264928 -0.000000 
0.000000 5.000000 0.000000 -0.000000 0.000000 -0.000000 -0.000000 44.999994 -0.000000 
0.000000 5.000000 0.000000 -0.000000 0.000000 -0.000000 -0.000000 52.735057 -0.000000 
0.000000 5.000000 0.000000 -0.000000 0.000000 -0.000000 -0.000000 60.169780 -0.000000 
0.000000 5.000000 0.000000 -0.000000 0.000000 -0.000000 -0.000000 67.041087 -0.000000 
0.000000 5.000000 0.000000 -0.000000 0.000000 -0.000000 -0.000000 73.148573 -0.000000 
0.000000 5.000000 0.000000 -0.000000 0.000000 -0.000000 -0.000000 78.362221 -0.000000 
0.000000 5.000000 0.000000 -0.000000 0.000000 -0.000000 -0.000000 82.615181 -0.000000 
0.000000 5.000000 0.000000 -0.000000 0.000000 -0.000000 -0.000000 85.888188 -0.000000 
0.000000 5.000000 0.000000 -0.000000 0.000000 -0.000000 -0.000000 88.192072 -0.000000 
0.000000 5.000000 0.000000 -0.000000 0.000000 -0.000000 -0.000000 89.552714 -0.000000 
0.000000 5.000000 0.000000 -0.000000 0.000000 -0.000000 -0.000000 89.999989 0.000000 
0.000000 4.993137 0.000000 -0.000000 0.000000 -0.000000 -0.000000 89.552714 -0.000000 
0.000000 4.972445 0.000000 -0.000000 0.000000 -0.000000 -0.000000 88.192072 -0.000000 
0.000000 4.937806 0.000000 -0.000000 0.000000 -0.000000 -0.000000 85.888181 -0.000000 
0.000000 4.889154 0.000000 -0.000000 0.000000 -0.000000 -0.000000 82.615168 -0.000000 
0.000000 4.826490 0.000000 -0.000000 0.000000 -0.000000 -0.000000 78.362200 -0.000000 
0.000000 4.749884 0.000000 -0.000000 0.000000 -0.000000 -0.000000 73.148567 -0.000000 
0.000000 4.659490 0.000000 -0.000000 0.000000 -0.000000 -0.000000 67.041080 -0.000000 
0.000000 4.555555 0.000000 -0.000000 0.000000 -0.000000 -0.000000 60.169752 -0.000000 
0.000000 4.438431 0.000000 -0.000000 0.000000 -0.000000 -0.000000 52.735050 -0.000000 
0.000000 4.308578 0.000000 -0.000000 0.000000 -0.000000 -0.000000 44.999988 -0.000000 
0.000000 4.166579 0.000000 -0.000000 0.000000 -0.000000 -0.000000 37.264928 -0.000000 
0.000000 4.013143 0.000000 -0.000000 0.000000 -0.000000 -0.000000 29.830213 -0.000000 
0.000000 3.849106 0.000000 -0.000000 0.000000 -0.000000 -0.000000 22.958890 -0.000000 
0.000000 3.675436 0.000000 -0.000000 0.000000 -0.000000 -0.000000 16.851405 -0.000000 
0.000000 3.493227 0.000000 -0.000000 0.000000 -0.000000 -0.000000 11.637784 -0.000000 
0.000000 3.303692 0.000000 -0.000000 0.000000 -0.000000 -0.000000 7.384812 -0.000000 
0.000000 3.108154 0.000000 -0.000000 0.000000 -0.000000 -0.000000 4.111799 -0.000000 
0.000000 2.908026 0.000000 -0.000000 0.000000 -0.000000 -0.000000 1.807902 -0.000000 
0.000000 2.704795 0.000000 -0.000000 0.000000 -0.000000 -0.000000 0.447264 -0.000000 
0.000000 2.500000 0.000000 -0.000000 0.000000 -0.000000 -0.000000 -0.000014 -0.000000 
0.000000 2.295205 0.000000 -0.000000 0.000000 -0.000000 -0.000000 -0.000014 -0.000000 
0.000000 2.091975 0.000000 -0.000000 0.000000 -0.000000 -0.000000 -0.000014 -0.000000 
0.000000 1.891846 0.000000 -0.000000 0.000000 -0.000000 -0.000000 -0.000014 -0.000000 
0.000000 1.696307 0.000000 -0.000000 0.000000 -0.000000 -0.000000 -0.000014 -0.000000 
0.000000 1.506773 0.000000 -0.000000 0.000000 -0.000000 -0.000000 -0.000014 -0.000000 
0.000000 1.324564 0.000000 -0.000000 0.000000 -0.000000 -0.000000 -0.000014 -0.000000 
0.000000 1.150894 0.000000 -0.000000 0.000000 -0.000000 -0.000000 -0.000014 -0.000000 
0.000000 0.986858 0.000000 -0.000000 0.000000 -0.000000 -0.000000 -0.000014 -0.000000 
0.000000 0.833421 0.000000 -0.000000 0.000000 -0.000000 -0.000000 -0.000014 -0.000000 
0.000000 0.691422 0.000000 -0.000000 0.000000 -0.000000 -0.000000 -0.000014 -0.000000 
0.000000 0.561569 0.000000 -0.000000 0.000000 -0.000000 -0.000000 -0.000014 -0.000000 
0.000000 0.444444 0.000000 -0.000000 0.000000 -0.000000 -0.000000 -0.000014 -0.000000 
0.000000 0.340510 0.000000 -0.000000 0.000000 -0.000000 -0.000000 -0.000014 -0.000000 
0.000000 0.250116 0.000000 -0.000000 0.000000 -0.000000 -0.000000 -0.000014 -0.000000 
0.000000 0.173510 0.000000 -0.000000 0.000000 -0.000000 -0.000000 -0.000014 -0.000000 
0.000000 0.110845 0.000000 -0.000000 0.000000 -0.000000 -0.000000 -0.000014 -0.000000 
0.000000 0.062194 0.000000 -0.000000 0.000000 -0.000000 -0.000000 -0.000014 -0.000000 
0.000000 0.027555 0.000000 -0.000000 0.000000 -0.000000 -0.000000 -0.000014 -0.000000 
0.000000 0.006864 0.000000 -0.000000 0.000000 -0.000000 -0.000000 -0.000014 -0.000000 
0.000000 0.000000 0.000000 -0.000000 0.000000 -0.000000 -0.000000 -0.000014 -0.000000 
